<svg width="785" height="771" viewBox="0 0 785 771" fill="none" xmlns="http://www.w3.org/2000/svg">
<path d="M738.782 522.376C660.986 704.215 455.63 782.319 294.731 769.002C250.799 765.366 162.407 758.05 93.389 692.783C-39.1544 567.441 -18.7415 305.441 108.141 151.19C124.48 131.325 237.582 -1.76365 413.829 0.0177184C542.868 1.32215 633.439 74.2144 644.452 83.2954C658.365 94.7672 689.05 122.028 716.705 165.275C781.684 266.89 787.396 408.745 738.782 522.376Z" fill="url(#paint0_linear_109_1438)"/>
<g opacity="0.3">
<path d="M128.306 163.935C126.92 163.487 126.069 162.055 126.376 160.6C127.048 157.416 127.87 154.215 128.815 151.084C129.276 149.561 130.883 148.699 132.406 149.159C132.424 149.165 132.442 149.171 132.46 149.177C133.949 149.658 134.785 151.245 134.33 152.75C133.431 155.724 132.652 158.766 132.013 161.79C131.685 163.346 130.156 164.342 128.599 164.013C128.499 163.992 128.401 163.965 128.306 163.935ZM136.198 140.113C136.091 140.079 135.984 140.037 135.879 139.989C134.433 139.326 133.799 137.616 134.462 136.17C135.826 133.2 137.329 130.259 138.932 127.429C139.716 126.045 141.466 125.559 142.858 126.341C144.242 127.126 144.728 128.884 143.945 130.267C142.422 132.957 140.994 135.751 139.699 138.573C139.083 139.914 137.568 140.556 136.198 140.113ZM149.139 118.623C148.834 118.524 148.54 118.372 148.271 118.166C147.009 117.197 146.772 115.389 147.74 114.127C149.725 111.54 151.849 109.008 154.05 106.6C155.125 105.426 156.946 105.347 158.12 106.418C159.294 107.491 159.375 109.314 158.302 110.488C156.211 112.774 154.195 115.178 152.31 117.635C151.548 118.628 150.265 118.987 149.139 118.623ZM166.564 100.562C166.06 100.399 165.595 100.095 165.232 99.6558C164.219 98.4298 164.392 96.6139 165.618 95.6004C168.134 93.5223 170.77 91.5279 173.452 89.6725C174.76 88.7697 176.554 89.0962 177.46 90.4034C178.365 91.7114 178.037 93.5057 176.729 94.4111C174.181 96.1728 171.677 98.0668 169.287 100.043C168.499 100.693 167.469 100.854 166.564 100.562ZM187.579 86.8398C186.872 86.6113 186.253 86.1109 185.893 85.3949C185.176 83.974 185.748 82.2418 187.168 81.5266C190.075 80.0621 193.086 78.7008 196.117 77.483C197.592 76.8885 199.27 77.6034 199.864 79.0806C200.457 80.5564 199.742 82.234 198.266 82.8283C195.385 83.9856 192.523 85.2792 189.76 86.6712C189.056 87.0261 188.275 87.0648 187.579 86.8398ZM211.104 78.1093C210.188 77.8134 209.441 77.0657 209.192 76.063C208.808 74.5187 209.748 72.9568 211.292 72.5723C214.456 71.7854 217.693 71.124 220.914 70.6087C222.485 70.3573 223.962 71.4271 224.213 72.9982C224.465 74.5681 223.395 76.0459 221.825 76.2976C218.765 76.7878 215.689 77.4154 212.683 78.1631C212.141 78.2978 211.598 78.2691 211.104 78.1093ZM313.651 104.037C313.272 103.915 312.912 103.711 312.599 103.425C310.311 101.341 307.902 99.3276 305.438 97.4436C304.174 96.4773 303.933 94.6694 304.899 93.4067C305.865 92.1425 307.673 91.9013 308.937 92.8679C311.532 94.8524 314.07 96.9719 316.479 99.1667C317.655 100.238 317.739 102.061 316.668 103.236C315.882 104.099 314.693 104.374 313.651 104.037ZM235.963 74.8116C234.826 74.4442 233.994 73.3876 233.969 72.1262C233.939 70.5353 235.203 69.2209 236.793 69.1898C240.053 69.1257 243.355 69.203 246.609 69.4194C248.195 69.5323 249.398 70.8966 249.292 72.4845C249.187 74.0716 247.814 75.273 246.227 75.1679C243.137 74.962 240.001 74.8886 236.905 74.949C236.577 74.9554 236.259 74.9073 235.963 74.8116ZM293.318 89.3344C293.137 89.2759 292.958 89.1994 292.787 89.1026C290.089 87.5817 287.289 86.1581 284.467 84.8691C283.02 84.2075 282.383 82.4987 283.044 81.0522C283.705 79.6056 285.415 78.9605 286.861 79.6285C289.83 80.9854 292.776 82.4835 295.615 84.0827C297 84.8641 297.491 86.6212 296.71 88.0065C296.026 89.2201 294.594 89.7468 293.318 89.3344ZM260.936 77.1494C259.552 76.7025 258.701 75.2741 259.005 73.8201C259.331 72.2629 260.857 71.2648 262.415 71.5897C265.603 72.2568 268.805 73.0705 271.932 74.0097C271.951 74.0147 271.971 74.0213 271.99 74.0274C273.478 74.5079 274.314 76.092 273.863 77.5957C273.405 79.1198 271.799 79.9845 270.276 79.5264C267.305 78.6351 264.264 77.8626 261.234 77.2291C261.133 77.2073 261.033 77.1808 260.936 77.1494Z" fill="#91B3FA"/>
<path d="M327.307 118.958C326.767 118.784 326.273 118.449 325.903 117.963C325.004 116.781 324.065 115.599 323.113 114.447C322.098 113.222 322.27 111.406 323.495 110.392C324.72 109.378 326.538 109.547 327.551 110.776C328.553 111.986 329.54 113.23 330.487 114.474C331.45 115.739 331.205 117.547 329.94 118.51C329.16 119.104 328.174 119.239 327.307 118.958Z" fill="#91B3FA"/>
</g>
<g opacity="0.3">
<path d="M348.985 204.06C347.662 203.633 346.808 202.297 347.027 200.88C347.255 199.412 347.455 197.915 347.623 196.431C347.802 194.85 349.228 193.713 350.808 193.892C352.396 194.071 353.526 195.497 353.348 197.077C353.171 198.64 352.96 200.216 352.721 201.761C352.477 203.333 351.006 204.41 349.433 204.167C349.279 204.143 349.129 204.107 348.985 204.06Z" fill="#91B3FA"/>
<path d="M203.721 293.761C202.46 293.353 201.2 292.923 199.944 292.469C198.447 291.929 197.672 290.278 198.211 288.782C198.751 287.285 200.411 286.507 201.898 287.049C204.798 288.095 207.734 289.021 210.659 289.81C212.195 290.227 213.104 291.805 212.69 293.341C212.275 294.878 210.694 295.787 209.158 295.372C207.349 294.885 205.52 294.342 203.721 293.761ZM186.025 286.344C185.871 286.294 185.72 286.231 185.572 286.154C182.724 284.665 179.907 283.038 177.201 281.319C175.858 280.467 175.461 278.687 176.313 277.344C177.166 276.001 178.95 275.601 180.289 276.457C182.859 278.089 185.535 279.634 188.242 281.05C189.651 281.786 190.196 283.527 189.459 284.936C188.799 286.198 187.336 286.767 186.025 286.344ZM224.032 298.296C222.74 297.878 221.886 296.589 222.063 295.193C222.264 293.614 223.706 292.498 225.284 292.698C228.303 293.082 231.379 293.342 234.429 293.469C236.019 293.538 237.253 294.878 237.187 296.467C237.12 298.058 235.778 299.292 234.188 299.226C230.977 299.092 227.737 298.818 224.557 298.414C224.376 298.39 224.2 298.35 224.032 298.296ZM165.53 272.557C165.182 272.444 164.851 272.262 164.554 272.012C162.105 269.935 159.716 267.729 157.452 265.454C156.33 264.327 156.334 262.503 157.462 261.382C158.59 260.258 160.413 260.262 161.535 261.391C163.685 263.551 165.954 265.646 168.28 267.618C169.493 268.646 169.643 270.465 168.614 271.678C167.837 272.595 166.608 272.905 165.53 272.557ZM248.708 298.678C247.648 298.336 246.839 297.39 246.726 296.211C246.574 294.627 247.735 293.22 249.319 293.068C252.347 292.779 255.405 292.355 258.409 291.81C259.974 291.526 261.474 292.564 261.757 294.13C262.041 295.695 261.003 297.194 259.438 297.478C256.275 298.052 253.056 298.498 249.867 298.803C249.464 298.842 249.071 298.795 248.708 298.678ZM272.872 293.636C272.024 293.362 271.315 292.7 271.017 291.789C270.523 290.277 271.348 288.651 272.861 288.157C275.761 287.209 278.655 286.128 281.462 284.944C282.927 284.324 284.616 285.01 285.235 286.478C285.854 287.944 285.167 289.633 283.701 290.252C280.747 291.498 277.701 292.635 274.65 293.632C274.049 293.829 273.43 293.816 272.872 293.636ZM295.361 283.446C294.716 283.238 294.142 282.803 293.77 282.174C292.958 280.806 293.41 279.039 294.778 278.228C297.405 276.67 299.994 274.986 302.475 273.219C303.77 272.297 305.568 272.598 306.492 273.895C307.414 275.191 307.112 276.989 305.816 277.912C303.206 279.771 300.48 281.545 297.717 283.183C296.977 283.622 296.12 283.692 295.361 283.446ZM315.091 268.595C314.644 268.451 314.227 268.195 313.883 267.83C312.792 266.672 312.846 264.85 314.004 263.759C316.225 261.666 318.382 259.455 320.414 257.186C321.476 256.002 323.299 255.902 324.482 256.962C325.667 258.024 325.767 259.845 324.705 261.03C322.564 263.419 320.293 265.748 317.955 267.951C317.162 268.698 316.058 268.908 315.091 268.595ZM331.086 249.768C330.835 249.687 330.591 249.569 330.361 249.414C329.042 248.526 328.693 246.735 329.582 245.417C331.283 242.892 332.898 240.261 334.384 237.596C335.159 236.206 336.917 235.711 338.302 236.483C339.692 237.257 340.19 239.012 339.416 240.402C337.852 243.207 336.151 245.977 334.36 248.635C333.626 249.724 332.276 250.153 331.086 249.768ZM342.546 227.901C342.489 227.883 342.433 227.863 342.378 227.841C340.897 227.261 340.166 225.59 340.747 224.109C341.566 222.018 342.331 219.878 343.02 217.745C343.269 216.973 343.509 216.199 343.741 215.426C344.197 213.902 345.802 213.036 347.326 213.493C348.878 213.924 349.716 215.554 349.26 217.077C349.017 217.891 348.764 218.704 348.502 219.516C347.777 221.759 346.972 224.012 346.11 226.211C345.552 227.636 343.983 228.366 342.546 227.901Z" fill="#91B3FA"/>
<path d="M148.535 254.539C147.99 254.363 147.493 254.024 147.122 253.533C146.183 252.287 145.254 250.998 144.358 249.702C143.454 248.392 143.782 246.598 145.091 245.694C146.401 244.791 148.194 245.117 149.099 246.428C149.949 247.659 150.833 248.883 151.723 250.066C152.68 251.336 152.427 253.142 151.156 254.1C150.377 254.686 149.397 254.818 148.535 254.539Z" fill="#91B3FA"/>
</g>
<path d="M162.506 223.942C162.715 224.477 163.24 224.821 163.814 224.798L180.186 224.145C184.52 230.452 189.89 236.114 196.189 240.839L194.858 257.159C194.811 257.732 195.132 258.271 195.658 258.502L213.656 266.399C214.182 266.63 214.797 266.501 215.186 266.08L226.294 254.048C234.037 255.484 241.839 255.603 249.415 254.521L260.02 267.012C260.392 267.449 261.001 267.603 261.535 267.394L279.846 260.252C280.381 260.043 280.725 259.518 280.702 258.944L280.049 242.572C286.356 238.239 292.017 232.868 296.743 226.569L313.064 227.901C313.636 227.947 314.175 227.626 314.406 227.1L322.303 209.102C322.534 208.576 322.406 207.961 321.984 207.572L309.953 196.464C311.389 188.721 311.507 180.919 310.425 173.343L322.916 162.738C323.354 162.366 323.508 161.757 323.299 161.222L316.156 142.912C315.948 142.376 315.422 142.033 314.849 142.056L298.476 142.709C294.143 136.402 288.773 130.74 282.473 126.015L283.805 109.694C283.852 109.122 283.531 108.583 283.005 108.352L265.007 100.455C264.48 100.224 263.866 100.352 263.477 100.774L252.368 112.805C244.626 111.369 236.823 111.251 229.248 112.333L218.642 99.8424C218.271 99.4043 217.662 99.2506 217.127 99.4593L198.816 106.602C198.281 106.81 197.938 107.335 197.96 107.909L198.613 124.282C192.306 128.615 186.645 133.985 181.919 140.285L165.598 138.953C165.026 138.906 164.487 139.227 164.256 139.754L156.359 157.751C156.129 158.277 156.257 158.892 156.679 159.281L168.71 170.39C167.274 178.132 167.155 185.934 168.237 193.51L155.747 204.115C155.309 204.487 155.155 205.095 155.363 205.631L162.506 223.942Z" fill="#91B3FA"/>
<path d="M233.245 202.224C224.081 199.263 218.209 189.933 219.848 180.159C221.651 169.415 231.857 162.142 242.601 163.943C247.806 164.815 252.358 167.664 255.421 171.961C258.483 176.258 259.69 181.491 258.816 186.695C257.013 197.44 246.807 204.713 236.064 202.911C235.095 202.748 234.153 202.517 233.245 202.224ZM244.021 169.021C243.313 168.793 242.585 168.614 241.838 168.489C233.601 167.107 225.775 172.685 224.393 180.921C223.012 189.158 228.586 196.987 236.826 198.366C245.063 199.748 252.889 194.17 254.271 185.934C254.94 181.943 254.016 177.931 251.667 174.636C249.758 171.958 247.094 170.014 244.021 169.021Z" fill="#BDD0FB"/>
<path d="M224.855 229.5C223.281 228.992 221.723 228.401 220.188 227.728C219.705 227.516 219.225 227.296 218.749 227.069C216.4 225.947 214.145 224.64 212.017 223.168C211.988 223.148 211.959 223.128 211.93 223.108C211.848 223.051 211.766 222.994 211.685 222.936C211.525 222.824 211.367 222.71 211.209 222.596C210.794 222.297 210.638 221.772 210.786 221.309C210.823 221.197 210.878 221.088 210.95 220.987C211.323 220.471 212.043 220.358 212.558 220.729C215.212 222.647 218.091 224.291 221.114 225.617C236.128 232.208 252.787 230.155 265.497 221.648C272.568 216.917 278.416 210.188 282.08 201.837C282.723 200.373 283.287 198.886 283.771 197.385C287.035 187.282 286.727 176.454 282.816 166.43C278.325 154.914 269.618 145.838 258.3 140.872C234.924 130.617 207.585 141.288 197.334 164.652C196.702 166.093 196.145 167.56 195.665 169.047C193.584 175.492 192.935 182.321 193.791 189.045C193.813 189.219 193.796 189.388 193.745 189.544C193.612 189.956 193.251 190.275 192.794 190.333C192.162 190.412 191.585 189.969 191.505 189.335C190.607 182.275 191.287 175.106 193.472 168.34C193.975 166.779 194.56 165.239 195.223 163.727C205.986 139.197 234.704 128.002 259.225 138.761C271.108 143.974 280.248 153.503 284.963 165.592C289.068 176.116 289.392 187.483 285.966 198.09C285.457 199.666 284.865 201.226 284.191 202.763C278.977 214.646 269.448 223.786 257.36 228.501C246.833 232.606 235.463 232.928 224.855 229.5Z" fill="#BDD0FB"/>
<g opacity="0.3">
<path d="M11.4303 205.943C10.6981 205.706 10.1778 205.01 10.1999 204.201C10.2405 202.692 10.3274 201.163 10.4588 199.657C10.5441 198.678 11.4061 197.954 12.3856 198.039C13.3663 198.12 14.0886 198.987 14.0033 199.966C13.8783 201.401 13.7952 202.858 13.756 204.299C13.7301 205.28 12.912 206.055 11.9297 206.03C11.7555 206.024 11.5882 205.994 11.4303 205.943Z" fill="#91B3FA"/>
<path d="M13.0538 192.354C12.1959 192.077 11.6701 191.189 11.8631 190.29C12.4071 187.746 13.0886 185.202 13.8876 182.729C14.056 182.209 14.2307 181.688 14.4107 181.167C14.7336 180.238 15.7849 179.798 16.6751 180.068C17.6036 180.39 18.0948 181.403 17.7741 182.331C17.6016 182.828 17.4344 183.326 17.2734 183.823C16.5111 186.183 15.8614 188.609 15.3416 191.034C15.136 191.995 14.1909 192.606 13.2299 192.402C13.17 192.388 13.1109 192.372 13.0538 192.354ZM19.1042 174.9C19.0242 174.874 18.9439 174.843 18.8666 174.805C17.9839 174.372 17.619 173.307 18.0512 172.424C19.4374 169.592 21.0117 166.822 22.7299 164.191C23.267 163.368 24.373 163.141 25.1922 163.674C26.0153 164.212 26.2465 165.313 25.7094 166.136C24.0702 168.646 22.569 171.289 21.2466 173.989C20.8525 174.793 19.9328 175.168 19.1042 174.9ZM29.2065 159.435C28.9918 159.366 28.787 159.254 28.6037 159.1C27.854 158.465 27.7624 157.342 28.3972 156.592C30.4328 154.191 32.6406 151.89 34.9605 149.757C35.6842 149.091 36.8067 149.138 37.4744 149.863C38.1393 150.585 38.0921 151.711 37.3698 152.376C35.1576 154.411 33.0527 156.603 31.1121 158.893C30.6313 159.459 29.872 159.65 29.2065 159.435ZM42.8022 146.926C42.4517 146.813 42.134 146.59 41.903 146.269C41.3325 145.469 41.5174 144.357 42.317 143.786C44.8839 141.953 47.5858 140.265 50.3503 138.766C51.2145 138.299 52.294 138.622 52.7615 139.483C53.2302 140.347 52.9097 141.426 52.045 141.896C49.4102 143.323 46.8317 144.934 44.3849 146.682C43.9077 147.023 43.3203 147.094 42.8022 146.926ZM59.0399 138.118C58.5506 137.96 58.133 137.591 57.9301 137.075C57.571 136.161 58.0215 135.129 58.9356 134.769C61.8674 133.618 64.8977 132.636 67.9427 131.853C68.8955 131.606 69.8645 132.18 70.1094 133.132C70.3542 134.084 69.7812 135.054 68.8306 135.298C65.925 136.047 63.0344 136.982 60.2373 138.081C59.8384 138.237 59.4178 138.24 59.0399 138.118ZM76.9213 133.518C76.2873 133.313 75.7949 132.758 75.7033 132.052C75.5771 131.079 76.265 130.187 77.239 130.06C80.3621 129.656 83.5403 129.443 86.6835 129.429C87.6689 129.428 88.466 130.219 88.471 131.201C88.4759 132.183 87.6821 132.984 86.7004 132.988C83.7023 133.001 80.6737 133.204 77.6963 133.59C77.4264 133.625 77.1636 133.596 76.9213 133.518ZM95.3798 133.43C94.5863 133.173 94.0588 132.384 94.1618 131.526C94.2788 130.551 95.1645 129.855 96.1405 129.971C99.2572 130.344 102.391 130.919 105.456 131.677C106.408 131.93 106.992 132.88 106.755 133.833C106.519 134.787 105.554 135.368 104.601 135.133C101.677 134.407 98.6883 133.86 95.7168 133.504C95.5998 133.49 95.4874 133.464 95.3798 133.43ZM121.733 141.708C121.636 141.676 121.538 141.636 121.444 141.585C119.153 140.368 116.756 139.256 114.317 138.278C113.949 138.128 113.585 137.985 113.221 137.847C112.303 137.496 111.842 136.469 112.193 135.55C112.542 134.63 113.586 134.145 114.489 134.521C114.877 134.67 115.264 134.821 115.65 134.978C118.198 136 120.711 137.167 123.113 138.443C123.981 138.905 124.311 139.981 123.849 140.849C123.439 141.622 122.539 141.968 121.733 141.708Z" fill="#91B3FA"/>
</g>
<g opacity="0.3">
<path d="M64.4007 279.72C63.4766 279.421 62.9613 278.433 63.2486 277.502C63.5382 276.564 64.5346 276.037 65.4733 276.327C68.2996 277.2 71.203 277.908 74.1033 278.431C75.0624 278.613 75.7138 279.53 75.5389 280.498C75.3641 281.466 74.4384 282.107 73.4721 281.934C70.4307 281.383 67.3866 280.643 64.4239 279.727C64.4164 279.725 64.4082 279.722 64.4007 279.72ZM55.8814 276.516C55.8201 276.496 55.761 276.473 55.7011 276.447C52.8723 275.186 50.0915 273.74 47.4357 272.149C46.593 271.644 46.3187 270.553 46.8238 269.71C47.3286 268.865 48.4249 268.596 49.2643 269.096C51.7983 270.614 54.4519 271.994 57.151 273.198C58.0481 273.597 58.4513 274.65 58.0511 275.547C57.6763 276.386 56.7345 276.792 55.8814 276.516ZM82.2785 282.94C81.5277 282.698 81.0041 281.974 81.05 281.149C81.1043 280.169 81.9434 279.418 82.9246 279.472C85.8801 279.635 88.8693 279.62 91.8113 279.426C92.7939 279.365 93.6388 280.104 93.7026 281.085C93.7677 282.064 93.0244 282.913 92.044 282.977C88.9601 283.18 85.8258 283.195 82.7284 283.023C82.5711 283.015 82.4206 282.986 82.2785 282.94ZM40.2942 267.167C40.1018 267.105 39.9166 267.009 39.7471 266.877C37.3028 264.972 34.9517 262.896 32.7605 260.707C32.0647 260.012 32.0644 258.886 32.7586 258.19C33.4516 257.497 34.5783 257.496 35.2741 258.189C37.3641 260.275 39.6053 262.254 41.9356 264.071C42.7098 264.676 42.8487 265.794 42.2445 266.568C41.772 267.173 40.9853 267.39 40.2942 267.167ZM100.403 281.744C99.8041 281.55 99.326 281.043 99.201 280.382C99.0174 279.415 99.6523 278.485 100.617 278.302C103.518 277.753 106.415 277.02 109.229 276.122C110.167 275.822 111.167 276.341 111.465 277.277C111.763 278.213 111.246 279.215 110.31 279.513C107.359 280.453 104.321 281.223 101.28 281.799C100.977 281.856 100.677 281.832 100.403 281.744ZM117.712 276.234C117.254 276.086 116.857 275.753 116.641 275.281C116.232 274.388 116.624 273.332 117.518 272.923C120.209 271.691 122.849 270.285 125.363 268.746C126.202 268.232 127.298 268.496 127.809 269.334C128.323 270.172 128.06 271.266 127.222 271.779C124.586 273.394 121.819 274.868 118.999 276.159C118.578 276.351 118.121 276.366 117.712 276.234ZM133.204 266.735C132.882 266.631 132.586 266.435 132.36 266.148C131.748 265.379 131.877 264.26 132.647 263.649C134.966 261.811 137.191 259.812 139.26 257.711C139.949 257.014 141.076 257.004 141.775 257.693C142.475 258.383 142.484 259.509 141.794 260.21C139.623 262.412 137.29 264.508 134.859 266.437C134.374 266.821 133.752 266.912 133.204 266.735Z" fill="#91B3FA"/>
<path d="M27.3771 254.264C27.0506 254.159 26.7512 253.958 26.5237 253.667C25.5858 252.468 24.6797 251.235 23.8287 250.003C23.2709 249.194 23.4733 248.086 24.2817 247.527C25.0901 246.972 26.1975 247.173 26.7572 247.98C27.5679 249.155 28.4332 250.331 29.3274 251.477C29.9327 252.251 29.7947 253.37 29.0208 253.974C28.5378 254.35 27.9203 254.44 27.3771 254.264Z" fill="#91B3FA"/>
</g>
<path d="M35.8515 232.849C35.9912 233.207 36.3426 233.437 36.7265 233.422L47.6822 232.985C50.5817 237.205 54.1751 240.993 58.3906 244.155L57.4993 255.076C57.4679 255.459 57.6832 255.82 58.0351 255.974L70.0785 261.259C70.4307 261.413 70.8417 261.327 71.1025 261.045L78.5355 252.994C83.7168 253.955 88.9375 254.035 94.0065 253.311L101.103 261.669C101.352 261.962 101.759 262.064 102.117 261.925L114.37 257.145C114.728 257.006 114.958 256.654 114.943 256.27L114.506 245.315C118.726 242.415 122.515 238.821 125.676 234.606L136.598 235.497C136.981 235.529 137.341 235.314 137.496 234.962L142.78 222.918C142.935 222.566 142.849 222.155 142.566 221.894L134.516 214.461C135.477 209.28 135.556 204.059 134.832 198.99L143.19 191.893C143.483 191.645 143.586 191.237 143.446 190.879L138.667 178.627C138.528 178.269 138.176 178.039 137.792 178.054L126.836 178.491C123.937 174.27 120.343 170.482 116.128 167.32L117.019 156.399C117.05 156.016 116.835 155.655 116.483 155.501L104.44 150.216C104.088 150.062 103.677 150.148 103.416 150.43L95.983 158.481C90.8017 157.52 85.5807 157.441 80.5117 158.165L73.4152 149.807C73.1665 149.514 72.7591 149.411 72.4012 149.55L60.1485 154.33C59.7905 154.469 59.5603 154.821 59.5758 155.205L60.0124 166.161C55.7919 169.06 52.0037 172.654 48.8417 176.869L37.9205 175.978C37.5377 175.946 37.1769 176.161 37.0226 176.514L31.7381 188.557C31.5839 188.909 31.6697 189.32 31.9521 189.581L40.0027 197.014C39.0419 202.195 38.9625 207.416 39.6864 212.485L31.3285 219.582C31.0354 219.831 30.9328 220.238 31.0724 220.596L35.8515 232.849Z" fill="#91B3FA"/>
<path d="M83.0937 218.537C80.3628 217.654 77.9958 215.927 76.2997 213.548C74.2136 210.621 73.3927 207.056 73.9878 203.511C75.2144 196.195 82.166 191.24 89.4847 192.466C96.8103 193.708 101.758 200.648 100.53 207.965C99.9362 211.511 97.9963 214.612 95.0695 216.697C92.1422 218.784 88.5775 219.606 85.0316 219.01C84.3694 218.898 83.7213 218.739 83.0937 218.537ZM90.3083 196.319C89.8526 196.172 89.3818 196.057 88.896 195.974C83.5127 195.073 78.3993 198.717 77.4965 204.1C77.0596 206.707 77.6626 209.33 79.1973 211.482C80.7324 213.636 83.0139 215.06 85.6211 215.501C88.2286 215.938 90.8513 215.334 93.0039 213.8C95.1578 212.265 96.5843 209.983 97.0217 207.375C97.8434 202.479 94.9001 197.803 90.3083 196.319Z" fill="#BDD0FB"/>
<path d="M77.2302 237.514C76.159 237.168 75.0969 236.765 74.0445 236.304C71.9551 235.388 69.9565 234.258 68.1003 232.943C68.0172 232.883 67.9344 232.823 67.8513 232.764C67.2101 232.301 66.9689 231.491 67.1988 230.777C67.2549 230.603 67.3393 230.435 67.4517 230.279C68.0269 229.483 69.1384 229.309 69.9349 229.88C71.6564 231.125 73.5198 232.189 75.4728 233.045L75.4736 233.045C75.5807 233.092 75.6889 233.138 75.7957 233.183C80.436 235.167 85.3951 235.918 90.2891 235.455C92.9457 235.203 95.5846 234.591 98.1432 233.62C98.1642 233.612 98.1849 233.604 98.2056 233.596C98.2694 233.571 98.3328 233.548 98.3958 233.523C105.85 230.614 111.727 224.978 114.941 217.651C115.358 216.703 115.723 215.741 116.037 214.769C118.149 208.229 117.949 201.219 115.418 194.728C112.51 187.274 106.873 181.399 99.5468 178.185C92.2234 174.975 84.0791 174.801 76.6243 177.707C69.1701 180.615 63.2936 186.252 60.0789 193.579C59.669 194.511 59.3091 195.461 58.9983 196.423C57.6508 200.596 57.2313 205.016 57.7858 209.369C57.8197 209.637 57.7927 209.899 57.714 210.14C57.5089 210.775 56.9522 211.269 56.2459 211.358C55.271 211.48 54.3803 210.794 54.2561 209.817C53.6362 204.946 54.1052 200 55.6116 195.333C55.96 194.255 56.3624 193.192 56.82 192.15C60.4175 183.951 66.9915 177.646 75.3323 174.392C83.6717 171.14 92.777 171.321 100.976 174.925C109.174 178.522 115.48 185.095 118.733 193.436C121.566 200.697 121.788 208.539 119.425 215.857C119.074 216.943 118.666 218.02 118.201 219.08C111.236 234.951 93.3804 242.733 77.2302 237.514Z" fill="#BDD0FB"/>
<path d="M662.083 48.7706C661.425 45.666 656.619 45.6567 655.129 48.7419C639.997 80.07 609.16 167.079 672.596 263.97C752.186 385.534 743.114 447.812 717.642 495.174C717.642 495.174 764.928 456.301 776.043 392.209C803.334 234.848 673.777 103.971 662.083 48.7706Z" fill="#BDD0FB"/>
<path d="M662.593 98.1877C666.349 114.121 670.458 129.942 675.218 145.537C679.883 161.162 685.085 176.596 690.83 191.805C696.642 206.985 702.779 222.031 709.643 236.743C716.43 251.49 723.942 265.882 731.544 280.301C739.047 294.76 746.701 309.278 752.648 324.727C758.598 340.137 762.532 356.654 762.933 373.683C763.028 377.929 763.038 382.203 762.77 386.462C762.588 390.719 762.199 394.992 761.726 399.264C760.734 407.812 759.12 416.379 756.826 424.869C752.19 441.845 744.781 458.454 735.329 474.008C734.335 475.645 732.154 476.382 730.458 475.656C728.793 474.943 728.215 473.083 729.137 471.466L729.143 471.454C731.331 467.624 733.471 463.78 735.425 459.882C736.435 457.943 737.353 455.977 738.309 454.024C739.186 452.048 740.145 450.093 740.957 448.102C744.348 440.172 747.145 432.096 749.293 423.939C753.671 407.652 755.456 390.957 755.104 374.685C754.827 366.559 753.886 358.534 752.258 350.672C750.623 342.813 748.304 335.124 745.483 327.6C739.84 312.545 732.402 298.105 725.021 283.585C717.659 269.052 710.378 254.389 703.808 239.406C700.5 231.927 697.348 224.378 694.354 216.765C692.831 212.97 691.394 209.14 689.948 205.313C688.545 201.47 687.166 197.617 685.824 193.752C680.486 178.277 675.692 162.607 671.468 146.764C667.33 130.894 663.672 114.88 660.717 98.6948C660.632 98.2319 660.986 97.7519 661.506 97.6219C662.011 97.4966 662.489 97.7494 662.593 98.1877Z" fill="white"/>
<path d="M674.014 294.054C677.984 296.772 683.441 294.552 684.447 289.846C690 263.882 699.061 189.052 641.592 117.648C593.061 57.3495 572.476 20.0414 564.305 2.45762C562.577 -1.26052 557.107 -0.611895 556.289 3.40572C547.263 47.7325 530.139 195.548 674.014 294.054Z" fill="#91B3FA"/>
<path d="M679.327 290.283C679.447 290.279 679.567 290.263 679.687 290.234C680.698 289.998 681.325 288.987 681.088 287.977C680.82 286.832 653.546 172.458 589.855 85.569C589.242 84.7329 588.067 84.5516 587.229 85.1643C586.392 85.7782 586.211 86.9534 586.824 87.7908C650.052 174.047 677.164 287.696 677.43 288.834C677.638 289.723 678.447 290.316 679.327 290.283Z" fill="white"/>
<path d="M144.213 471.309C181.129 471.309 211.056 441.383 211.056 404.466C211.056 367.55 181.129 337.624 144.213 337.624C107.297 337.624 77.3701 367.55 77.3701 404.466C77.3701 441.383 107.297 471.309 144.213 471.309Z" fill="url(#paint1_linear_109_1438)"/>
<path d="M774.177 687.905C774.177 695.494 768.014 701.704 760.481 701.704H19.8587C12.3261 701.704 6.16277 695.494 6.16277 687.905L0 258.685C0 251.096 8.86628 236.28 25.1156 237.393L748.933 218.506C758.385 218.259 767.523 221.928 774.216 228.656C780.909 235.383 784.571 244.582 784.348 254.104L774.177 687.905Z" fill="#4E4480"/>
<path d="M760.655 674.667C760.655 681.853 754.824 687.734 747.698 687.734H37.7192C30.5928 687.734 24.7618 681.853 24.7618 674.667L18.9463 285.018C19.6313 261.569 40.0161 253.142 52.3731 253.64C52.3731 253.64 618.103 238.333 746.086 234.871C752.726 234.691 759.146 237.271 763.849 242.001C768.552 246.732 771.138 253.206 770.972 259.903L760.655 674.667Z" fill="#8C7AE6"/>
<g opacity="0.5">
<path d="M32.4346 488.585C31.9184 488.585 31.4967 488.171 31.4892 487.654L31.0294 456.054C31.0219 455.532 31.4393 455.102 31.9609 455.095C31.9656 455.095 31.9701 455.095 31.9747 455.095C32.4909 455.095 32.9126 455.509 32.9201 456.026L33.3799 487.626C33.3874 488.148 32.97 488.578 32.4484 488.586C32.444 488.585 32.4393 488.585 32.4346 488.585Z" fill="#BDD0FB"/>
<path d="M31.3073 411.149C30.7911 411.149 30.3694 410.735 30.3619 410.217L28.5996 289.19C28.6355 281.101 31.1179 274.649 35.9765 269.995C44.7429 261.596 58.4013 262.023 58.9707 262.043L280.51 256.048C281.05 256.019 281.467 256.444 281.481 256.967C281.495 257.489 281.083 257.924 280.562 257.937L58.9682 263.933C58.3525 263.915 45.4779 263.51 37.284 271.36C32.8104 275.646 30.5245 281.641 30.4903 289.18L32.2526 410.189C32.2601 410.711 31.8427 411.141 31.3211 411.148C31.3167 411.149 31.312 411.149 31.3073 411.149Z" fill="#BDD0FB"/>
</g>
<path d="M56.0414 653.051C56.7847 620.846 56.5079 335.663 54.6757 311.033C52.8433 286.404 90.8803 281.784 149.279 279.012C207.677 276.24 700.407 265.266 713.093 264.229C741.611 261.897 747.513 304.882 744.66 398.199C742.517 468.308 738.964 583.799 737.33 636.911C736.843 652.725 724.026 665.273 708.337 665.316C589.766 665.645 135.318 666.958 105.065 667.867C70.2507 668.912 55.7469 665.821 56.0414 653.051Z" fill="#7D97F4"/>
<path d="M61.1687 324.173L69.0673 647.893C69.326 658.494 77.086 666.942 86.4883 666.859L213.858 665.732C223.299 665.648 230.873 656.997 230.826 646.35L229.382 317.506C229.334 306.477 221.148 297.663 211.378 298.119L77.5541 304.37C68.1962 304.807 60.9112 313.612 61.1687 324.173Z" fill="#B7E1FF"/>
<path d="M246.864 319.974L253.293 647.985C253.502 658.65 261.309 667.17 270.767 667.055L723.673 661.552C733.23 661.436 740.827 652.554 740.586 641.778L733.203 311.768C732.964 301.097 725.125 292.602 715.662 292.759L263.709 300.261C254.201 300.419 246.654 309.251 246.864 319.974Z" fill="#B7E1FF"/>
<path d="M703.564 645.086H286.765C280.525 645.086 275.421 639.982 275.421 633.743V537.552C275.421 531.313 280.526 526.208 286.765 526.208H703.564C709.803 526.208 714.907 531.313 714.907 537.552V633.743C714.907 639.982 709.803 645.086 703.564 645.086Z" fill="#A9C1F7"/>
<path d="M402.213 509.568H286.984C280.745 509.568 275.641 504.463 275.641 498.224V327.91C275.641 321.67 280.745 316.566 286.984 316.566H402.213C408.452 316.566 413.556 321.671 413.556 327.91V498.224C413.557 504.463 408.452 509.568 402.213 509.568Z" fill="#A9C1F7"/>
<path d="M555.485 510.75H440.257C434.018 510.75 428.913 505.646 428.913 499.407V329.092C428.913 322.853 434.018 317.749 440.257 317.749H555.485C561.724 317.749 566.829 322.853 566.829 329.092V499.407C566.829 505.646 561.724 510.75 555.485 510.75Z" fill="#A9C1F7"/>
<path d="M705.918 512.377H590.689C584.45 512.377 579.346 507.273 579.346 501.034V330.719C579.346 324.48 584.45 319.375 590.689 319.375H705.918C712.157 319.375 717.261 324.48 717.261 330.719V501.034C717.261 507.273 712.157 512.377 705.918 512.377Z" fill="#8C7AE6" fill-opacity="0.31"/>
<path d="M146.978 455.915C185.412 455.915 216.568 424.759 216.568 386.326C216.568 347.892 185.412 316.736 146.978 316.736C108.545 316.736 77.3887 347.892 77.3887 386.326C77.3887 424.759 108.545 455.915 146.978 455.915Z" fill="#91B3FA"/>
<mask id="mask0_109_1438" style="mask-type:luminance" maskUnits="userSpaceOnUse" x="77" y="316" width="140" height="140">
<path d="M146.978 455.915C185.412 455.915 216.568 424.759 216.568 386.326C216.568 347.892 185.412 316.736 146.978 316.736C108.545 316.736 77.3887 347.892 77.3887 386.326C77.3887 424.759 108.545 455.915 146.978 455.915Z" fill="white"/>
</mask>
<g mask="url(#mask0_109_1438)">
<path d="M130.883 367.569C126.743 367.569 122.448 368.097 120.827 363.109C117.776 353.717 122.902 339.675 131.308 334.561C134.119 332.851 137.398 332.102 140.624 331.455C144.419 330.693 147.698 330.503 151.12 332.344C154.276 334.041 157.341 331.312 160.613 333.492C163.395 335.344 165.527 338.262 167.013 341.21C168.954 345.06 169.963 349.304 170.809 353.531C171.001 354.489 171.185 355.481 170.971 356.433C170.791 357.232 170.346 357.941 169.902 358.629C166.508 363.885 161.99 367.568 155.457 367.569C155.456 367.569 130.992 367.569 130.883 367.569Z" fill="url(#paint2_linear_109_1438)"/>
<path d="M130.052 351.036C130.052 351.036 130.801 352.604 125.926 355.054C123.207 356.42 117.919 358.439 117.221 364.337C116.86 367.382 115.671 374.901 112.774 375.365C105.558 376.523 95.819 381.026 94.9106 389.781C93.8681 399.83 96.7585 405.105 101.874 406.419C105.632 407.384 106.584 408.394 105.824 412.365C105.095 416.175 107.984 429.843 114.288 433.325C128.413 441.129 140.717 405.574 140.717 405.574L143.608 359.67L130.052 351.036Z" fill="url(#paint3_linear_109_1438)"/>
<path d="M162.378 347.022C162.378 347.022 161.616 348.683 166.58 351.279C169.347 352.726 174.731 354.866 175.442 361.115C175.809 364.341 176.667 368.874 179.617 369.366C186.962 370.593 195.475 377.75 197.287 391.645C198.669 402.252 195.651 413.627 190.443 415.019C186.618 416.042 186.906 414.014 187.679 418.222C188.421 422.258 186.68 420.7 180.263 424.389C165.882 432.657 151.521 404.803 151.521 404.803L148.578 356.169L162.378 347.022Z" fill="url(#paint4_linear_109_1438)"/>
<path d="M143.155 397.991C143.155 397.991 154.071 395.178 156.389 398.656C157.548 404.438 158.144 410.183 158.144 410.183L145.566 412.546L137.248 410.63L135.269 409.481L134.448 401.288C134.449 401.288 138.703 398.821 143.155 397.991Z" fill="url(#paint5_linear_109_1438)"/>
<path d="M130.06 368.817C130.06 368.817 128.305 363.551 125.672 365.306C123.039 367.062 129.624 378.263 129.624 378.263L130.06 368.817Z" fill="url(#paint6_linear_109_1438)"/>
<path d="M156.389 368.817C156.389 368.817 156.389 360.918 160.777 365.306C165.165 369.694 156.389 375.838 156.389 375.838V368.817Z" fill="url(#paint7_linear_109_1438)"/>
<path d="M197.721 440.545C194.047 422.811 188.771 408.95 187.105 408.147L177.142 432.797C177.142 432.797 175.13 440.142 175.293 449.262H190.616C195.209 449.262 198.653 445.044 197.721 440.545Z" fill="url(#paint8_linear_109_1438)"/>
<path d="M121.025 449.262C121.484 441.34 121.284 436.35 121.284 436.35L107.242 413.554C107.242 413.554 105.487 420.542 103.731 438.972C103.65 439.829 103.572 440.7 103.498 441.584C103.151 445.717 106.418 449.262 110.566 449.262L121.025 449.262Z" fill="url(#paint9_linear_109_1438)"/>
<path d="M140.463 449.311H155.753L159.899 405.729C159.899 405.729 156.389 404.825 154.633 398.682C152.878 392.539 152 380.239 152 380.239L136.203 383.743C136.203 383.743 137.959 400.467 134.448 408.366L140.463 449.311Z" fill="url(#paint10_linear_109_1438)"/>
<path d="M163.967 454.796L166.205 421.8C150.19 431.381 133.72 430.917 117.017 425.836L132.525 455.915L163.967 454.796Z" fill="#09005D"/>
<path d="M147.174 460.918C142.428 438.027 134.449 401.316 134.449 401.316L131.816 406.569L107.242 413.61C108.445 419.225 112.119 434.679 115.813 449.262L147.174 460.918Z" fill="url(#paint11_linear_109_1438)"/>
<path d="M179.33 449.262C180.639 442.25 181.792 436.777 181.792 436.777L187.105 408.147C185.433 406.475 159.197 402.877 159.197 402.877L156.389 398.686C156.389 398.686 151.339 436.189 148.345 461.298L179.33 449.262Z" fill="url(#paint12_linear_109_1438)"/>
<path d="M128.305 356.53C128.305 356.53 127.427 377.593 130.06 381.104C132.693 384.614 136.203 392.512 142.346 393.39C148.49 394.268 158.143 376.715 158.143 375.838C158.143 374.96 157.266 352.142 157.266 352.142C157.266 352.142 138.836 337.223 128.305 356.53Z" fill="url(#paint13_linear_109_1438)"/>
<path d="M124.794 353.02C124.794 353.02 121.284 363.551 131.815 360.041C142.346 356.53 142.346 356.53 142.346 356.53C142.346 356.53 152.878 350.387 154.633 353.02C156.388 355.653 158.144 362.137 158.144 362.137C158.144 362.137 161.654 353.02 158.144 347.754C154.633 342.488 132.693 338.1 124.794 353.02Z" fill="url(#paint14_linear_109_1438)"/>
</g>
<path d="M211.063 487.644H84.3315C83.2769 487.644 82.4141 486.781 82.4141 485.727V475.888C82.4141 474.833 83.2769 473.97 84.3315 473.97H211.063C212.118 473.97 212.981 474.833 212.981 475.888V485.727C212.981 486.781 212.118 487.644 211.063 487.644Z" fill="#8C7AE6"/>
<path d="M214.651 524.373H101.719C100.665 524.373 99.8018 523.51 99.8018 522.456V512.617C99.8018 511.562 100.665 510.699 101.719 510.699H214.651C215.706 510.699 216.569 511.562 216.569 512.617V522.456C216.569 523.51 215.706 524.373 214.651 524.373Z" fill="#8C7AE6"/>
<path d="M214.651 552.595H101.719C100.665 552.595 99.8018 551.732 99.8018 550.678V540.839C99.8018 539.784 100.665 538.921 101.719 538.921H214.651C215.706 538.921 216.569 539.784 216.569 540.839V550.678C216.569 551.732 215.706 552.595 214.651 552.595Z" fill="#8C7AE6"/>
<path d="M87.9999 524.447C91.9546 522.841 93.8587 518.333 92.253 514.379C90.6472 510.424 86.1396 508.52 82.1849 510.126C78.2303 511.731 76.3261 516.239 77.9319 520.194C79.5377 524.148 84.0453 526.053 87.9999 524.447Z" fill="#8C7AE6"/>
<path d="M92.7411 546.99C93.4189 542.776 90.5521 538.81 86.3379 538.132C82.1238 537.454 78.158 540.321 77.4802 544.535C76.8024 548.749 79.6692 552.715 83.8833 553.393C88.0975 554.071 92.0632 551.204 92.7411 546.99Z" fill="#8C7AE6"/>
<path d="M214.651 577.886H101.719C100.665 577.886 99.8018 577.023 99.8018 575.969V566.13C99.8018 565.075 100.665 564.212 101.719 564.212H214.651C215.706 564.212 216.569 565.075 216.569 566.13V575.969C216.569 577.023 215.706 577.886 214.651 577.886Z" fill="#8C7AE6"/>
<path d="M92.7411 572.281C93.4189 568.067 90.5521 564.101 86.3379 563.423C82.1238 562.745 78.158 565.612 77.4802 569.826C76.8024 574.04 79.6692 578.006 83.8833 578.684C88.0975 579.362 92.0632 576.495 92.7411 572.281Z" fill="#8C7AE6"/>
<path d="M214.651 603.147H101.719C100.665 603.147 99.8018 602.284 99.8018 601.229V591.39C99.8018 590.335 100.665 589.473 101.719 589.473H214.651C215.706 589.473 216.569 590.335 216.569 591.39V601.229C216.569 602.284 215.706 603.147 214.651 603.147Z" fill="#8C7AE6"/>
<path d="M87.998 603.458C91.9526 601.852 93.8568 597.345 92.251 593.39C90.6452 589.435 86.1376 587.531 82.183 589.137C78.2283 590.743 76.3242 595.25 77.9299 599.205C79.5357 603.16 84.0433 605.064 87.998 603.458Z" fill="#8C7AE6"/>
<path d="M214.651 628.407H101.719C100.665 628.407 99.8018 627.544 99.8018 626.489V616.65C99.8018 615.596 100.665 614.733 101.719 614.733H214.651C215.706 614.733 216.569 615.596 216.569 616.65V626.489C216.569 627.544 215.706 628.407 214.651 628.407Z" fill="#8C7AE6"/>
<path d="M85.1182 629.299C89.3866 629.299 92.8468 625.839 92.8468 621.57C92.8468 617.302 89.3866 613.842 85.1182 613.842C80.8498 613.842 77.3896 617.302 77.3896 621.57C77.3896 625.839 80.8498 629.299 85.1182 629.299Z" fill="#8C7AE6"/>
<path d="M260.697 297.927L258.04 382.286C257.752 391.457 265.108 399.048 274.283 399.048H370.686C379.436 399.048 386.615 392.12 386.926 383.376L389.184 296.814C389.393 288.8 382.949 282.192 374.933 282.199L278.663 282.28C269.263 281.277 260.994 288.479 260.697 297.927Z" fill="#6165D7"/>
<path d="M360.872 382.586H274.695C272.172 382.586 269.878 381.196 268.709 378.96C267.54 376.725 267.709 374.047 269.15 371.975L287.074 346.199C288.187 344.597 289.936 343.556 291.875 343.341C293.804 343.126 295.747 343.756 297.184 345.074L304.007 351.227C304.098 351.209 304.124 351.153 304.136 351.124L320.611 315.029C321.66 312.728 323.881 311.218 326.406 311.087C328.942 310.978 331.296 312.229 332.577 314.408L366.694 372.407C367.938 374.52 367.954 377.055 366.736 379.184C365.518 381.313 363.326 382.586 360.872 382.586ZM292.743 349.919L292.47 349.95L274.546 375.726C274.515 375.771 274.482 375.818 274.534 375.916C274.584 376.014 274.64 376.014 274.695 376.014H360.872C360.92 376.014 360.978 376.014 361.03 375.922C361.083 375.831 361.054 375.78 361.03 375.739L326.913 317.739C326.885 317.694 326.851 317.667 326.747 317.651C326.636 317.657 326.612 317.707 326.589 317.757L310.116 353.852C309.221 355.813 307.426 357.241 305.313 357.669C303.199 358.098 300.992 357.483 299.406 356.026L292.743 349.919Z" fill="white"/>
<path d="M359.701 329.998C351.058 329.998 344.027 322.967 344.027 314.323C344.027 305.68 351.058 298.648 359.701 298.648C368.344 298.648 375.376 305.68 375.376 314.323C375.376 322.967 368.344 329.998 359.701 329.998ZM359.701 305.221C354.682 305.221 350.599 309.304 350.599 314.323C350.599 319.342 354.682 323.426 359.701 323.426C364.72 323.426 368.804 319.342 368.804 314.323C368.804 309.304 364.72 305.221 359.701 305.221Z" fill="white"/>
<path d="M449.275 192.98V261.618C449.275 269.773 455.683 276.489 463.829 276.872L549.664 280.905C558.369 281.314 565.651 274.366 565.651 265.651V192.98C565.651 184.546 558.814 177.709 550.38 177.709H464.546C456.112 177.709 449.275 184.546 449.275 192.98Z" fill="#6165D7"/>
<path d="M480.37 264.069C479.261 264.069 478.324 264.055 477.581 264.04C476.314 264.015 475.274 263.082 475.112 261.822C474.949 260.553 475.726 259.381 476.957 259.034C483.549 257.186 490.736 254.046 496.029 251.504C470.789 249.446 465.75 236.483 464.776 230.554C462.319 215.6 475.298 198.68 493.707 192.835C512.493 186.876 531.522 189.023 542.193 198.309C547.864 203.244 554.014 212.694 551.114 229.701C545.69 261.519 496.069 264.069 480.37 264.069ZM477.676 259.46C477.676 259.46 477.68 259.46 477.682 259.46C477.681 259.46 477.678 259.46 477.676 259.46ZM514.143 247.017L506.147 251.476C505.725 251.71 498.687 255.613 490.127 259.193C509.613 258.018 542.58 252.513 546.6 228.931C548.639 216.961 546.146 207.82 539.188 201.765C528.393 192.368 509.265 192.705 495.093 197.201C479.043 202.297 467.229 217.23 469.296 229.811C471.172 241.232 484.178 247.621 504.989 247.184L514.143 247.017Z" fill="white"/>
<path d="M535.747 331.223V400.042C535.747 408.218 542.172 414.952 550.339 415.336L636.398 419.379C645.127 419.789 652.427 412.823 652.427 404.085V331.223C652.427 322.768 645.573 315.913 637.116 315.913H551.058C542.602 315.913 535.747 322.768 535.747 331.223Z" fill="#6165D7"/>
<path d="M592.534 399.349C575.058 399.349 560.84 385.13 560.84 367.654C560.84 350.178 575.058 335.96 592.534 335.96C610.011 335.96 624.229 350.178 624.229 367.654C624.229 385.13 610.011 399.349 592.534 399.349ZM592.534 341.271C577.986 341.271 566.151 353.107 566.151 367.654C566.151 382.202 577.987 394.038 592.534 394.038C607.082 394.038 618.917 382.202 618.917 367.654C618.917 353.107 607.082 341.271 592.534 341.271Z" fill="white"/>
<path fill-rule="evenodd" clip-rule="evenodd" d="M582.605 379.86V357.074C582.605 354.639 585.256 353.13 587.35 354.373L606.55 365.766C608.601 366.983 608.601 369.951 606.55 371.168L587.35 382.561C585.256 383.804 582.605 382.295 582.605 379.86Z" fill="white"/>
<path d="M418.649 385.469H407.719V341.912C407.719 324.805 420.525 310.348 437.508 308.284L459.856 305.568C469.474 304.399 479.151 307.413 486.405 313.839C493.659 320.264 497.819 329.506 497.819 339.197V377.222H486.889V339.197C486.889 332.633 484.071 326.372 479.157 322.02C474.244 317.668 467.689 315.625 461.174 316.418L438.826 319.134C427.323 320.532 418.648 330.324 418.648 341.912L418.649 385.469Z" fill="#4E4480"/>
<path d="M404.488 375.69L500.298 370.382C504.19 370.166 507.463 373.264 507.463 377.161V453.063C507.463 456.813 504.424 459.853 500.674 459.853H407.165C403.501 459.853 400.498 456.946 400.379 453.285L398.077 382.69C397.957 379.003 400.804 375.894 404.488 375.69Z" fill="#6165D7"/>
<path d="M468.388 438.109L462.589 421.437C461.892 419.432 462.367 417.191 463.858 415.681C466.829 412.669 468.6 408.471 468.391 403.859C468.021 395.726 461.377 389.133 453.242 388.82C444.239 388.474 436.832 395.67 436.832 404.596C436.832 409.547 439.113 413.965 442.68 416.859C444.531 418.36 445.291 420.826 444.508 423.076L439.28 438.109C438.008 441.765 440.722 445.583 444.593 445.583H463.074C466.945 445.583 469.66 441.765 468.388 438.109Z" fill="#2C3447"/>
<path d="M598.587 656.276H589.972V749.442H598.587V656.276Z" fill="#7D97F4"/>
<path d="M632.006 751.238H556.552V747.376C556.552 746.412 557.333 745.63 558.298 745.63H630.124C631.164 745.63 632.006 746.473 632.006 747.512L632.006 751.238Z" fill="#7D97F4"/>
<path d="M646.275 652.84C646.275 658.255 641.844 662.686 636.429 662.686H555.297C549.882 662.686 545.451 658.255 545.451 652.84V643.937C545.451 638.522 549.882 634.091 555.297 634.091H636.429C641.844 634.091 646.275 638.522 646.275 643.937V652.84Z" fill="#7D97F4"/>
<path d="M546.295 732.937C546.295 732.937 521.694 750.669 525.966 762.582C525.966 762.582 552.882 750.969 556.134 741.821C559.386 732.673 555.584 728.632 555.584 728.632L546.295 732.937Z" fill="url(#paint15_linear_109_1438)"/>
<path d="M549.992 718.076L554.014 729.705C554.621 731.46 554.014 733.458 552.444 734.45C551.658 734.947 550.584 735.406 549.115 735.739C547.043 736.209 544.904 735.251 543.907 733.375L539.096 724.315L549.992 718.076Z" fill="url(#paint16_linear_109_1438)"/>
<path d="M589.137 613.407C589.137 613.407 538.609 622.164 516.935 642.187C495.26 662.21 536.829 726.08 536.829 726.08C536.829 726.08 543.64 726.038 551.893 718.963C551.893 718.963 527.246 670.928 548.487 656.919C572.368 641.171 599.889 637.624 599.889 637.624L589.626 614.951L589.137 613.407Z" fill="url(#paint17_linear_109_1438)"/>
<path d="M530.241 755.993C535.652 753.488 550.97 742.767 553.552 742.294C556.134 741.821 560.613 744.855 560.613 744.855C560.613 744.855 561.702 746.815 560.537 750.232C556.942 754.582 548.959 762.876 538.226 765.966C530.332 768.239 524.81 766.12 521.371 763.64C523.263 760.758 526.637 757.661 530.241 755.993Z" fill="url(#paint18_linear_109_1438)"/>
<path d="M538.226 765.966C548.958 762.876 556.941 754.582 560.537 750.232C559.749 752.541 557.934 755.515 554.054 759.003C544.431 767.651 526.054 770.769 522.141 770.168C519.005 769.687 519.301 766.792 521.371 763.64C524.81 766.12 530.332 768.239 538.226 765.966Z" fill="url(#paint19_linear_109_1438)"/>
<path d="M565.201 737.286C565.14 738.777 562.093 743.89 560.312 746.758C559.466 748.121 557.983 748.954 556.379 748.958C555.362 748.961 554.192 748.872 553.13 748.567C551.535 748.109 550.639 746.411 551.106 744.818L554.585 732.937L565.201 737.286Z" fill="url(#paint20_linear_109_1438)"/>
<path d="M637.775 598.24C637.775 598.24 648.997 628.246 637.775 637.37C626.554 646.495 599.784 656.768 593.804 674.943C587.824 693.117 577.676 728.438 564.095 740.947C564.095 740.947 554.553 740.023 550.982 736.221C550.982 736.221 558.717 683.492 563.818 669.962C568.236 658.245 574.745 641.333 587.219 631.881C590.789 629.175 590.167 624.889 588.512 620.726L585.497 613.145L637.775 598.24Z" fill="url(#paint21_linear_109_1438)"/>
<path d="M520.742 574.723C539.557 575.857 533.694 545.798 533.355 544.603L561.912 564.773C561.912 564.773 560.4 580.848 536.658 589.28C530.651 591.413 525.161 591.508 520.307 590.464C522.376 584.428 521.956 579.012 520.742 574.723Z" fill="url(#paint22_linear_109_1438)"/>
<path d="M484.36 565.676C491.372 560.799 499.315 565.676 499.315 565.676C508.69 571.807 515.625 574.415 520.742 574.723C521.955 579.012 522.376 584.428 520.306 590.464C509.804 588.207 502.291 580.606 499.026 576.706C497.85 575.302 495.769 575.058 494.332 576.193C492.871 577.346 491.454 578.924 491.711 580.586C492.218 583.862 488.416 584.904 488.129 583.716C487.843 582.527 489.43 575.483 489.43 575.483C489.43 575.483 481.825 583.13 478.857 586.067C475.889 589.006 472.156 586.067 472.156 586.067C472.156 586.067 477.349 570.553 484.36 565.676Z" fill="url(#paint23_linear_109_1438)"/>
<path d="M608.474 498.181C608.474 498.181 581.102 487.221 530.16 529.278C530.16 529.278 525.904 538.086 530.546 545.925C535.188 553.765 579.418 591.963 585.497 613.146C585.497 613.146 611.847 621.708 639.097 601.405C639.097 601.405 636.693 542.449 608.474 498.181Z" fill="url(#paint24_linear_109_1438)"/>
<path d="M629.667 568.144C632.844 555.202 600.657 526.35 600.657 526.35L608.474 498.181C608.474 498.181 677.976 544.449 660.265 581.657C657.725 586.991 654.353 590.727 650.443 593.226C644.847 578.161 635.928 571.253 629.667 568.144Z" fill="url(#paint25_linear_109_1438)"/>
<path d="M629.69 566.259C630.031 566.259 630.342 566.027 630.427 565.68C633.677 552.449 602.515 524.331 601.187 523.14C600.875 522.86 600.395 522.885 600.113 523.198C599.833 523.511 599.86 523.992 600.171 524.272C600.49 524.557 631.984 552.965 628.95 565.318C628.85 565.726 629.1 566.137 629.508 566.237C629.568 566.252 629.629 566.259 629.69 566.259Z" fill="url(#paint26_linear_109_1438)"/>
<path d="M580.915 567.03C580.915 567.03 619.077 581.846 628.392 570.701C629.024 569.945 629.435 569.085 629.666 568.143C635.928 571.252 644.846 578.161 650.443 593.226C630.372 606.051 596.066 586.091 586.789 580.206C585.263 579.239 583.433 578.899 581.663 579.266C578.085 580.008 571.905 581.099 568.571 580.585C563.694 579.834 556.69 597.036 548.786 591.73C548.786 591.73 555.554 561.83 580.915 567.03Z" fill="url(#paint27_linear_109_1438)"/>
<path d="M544.247 511.68C539.05 516.017 536.555 519.644 537.134 525.439C546.702 530.562 558.648 531.898 571.884 531.178C578.854 522.374 585.013 509.86 584.091 498.926C581.493 495.765 570.36 495.168 562.895 498.181L544.247 511.68Z" fill="url(#paint28_linear_109_1438)"/>
<path d="M550.983 483.404L567.836 504.736C569.174 506.357 565.694 515.575 564.769 517.463C562.899 521.278 565.124 520.559 555.282 519.791C552.354 519.562 546.873 517.108 545.594 514.464L536.172 494.987L550.983 483.404Z" fill="url(#paint29_linear_109_1438)"/>
<path d="M525.041 464.406C524.906 464.931 528.2 500.64 528.2 500.64L548.549 498.326L550.455 464.017C550.455 464.017 527.311 455.614 525.041 464.406Z" fill="url(#paint30_linear_109_1438)"/>
<path d="M545.155 471.127L545.566 489.267C545.571 489.499 545.546 489.726 545.489 489.951C545.134 491.331 543.568 495.987 538.902 494.094C534.667 492.377 530.777 490.872 527.917 491.415C526.632 491.659 525.744 492.835 525.865 494.137C526.165 497.382 526.977 504.68 528.649 510.913C528.988 512.178 530.247 512.961 531.537 512.734C535.423 512.049 543.579 510.376 549.825 507.493C550.672 507.102 551.24 506.29 551.302 505.361C551.607 500.826 552.585 487.048 553.451 483.251C554.264 479.687 558.932 478.01 560.942 477.446C561.601 477.261 562.15 476.818 562.472 476.214C563.608 474.078 565.404 469.044 559.123 466.211C557.808 465.618 557.251 464.07 557.884 462.773C559.143 460.193 560 456.139 555.209 453.328C550.339 450.47 546.214 452.781 543.905 454.773C542.971 455.579 541.616 455.568 540.652 454.8C540.103 454.363 539.356 454.157 538.375 454.628C537.053 455.263 535.473 454.558 534.978 453.177C534.028 450.525 531.824 447.554 526.715 447.862C517.65 448.41 515.56 458.159 517.273 464.195C518.987 470.23 528.781 469.078 533.893 466.691C537.78 464.876 542.252 467.716 544.172 469.182C544.78 469.646 545.138 470.362 545.155 471.127Z" fill="url(#paint31_linear_109_1438)"/>
<path d="M553.535 489.857C553.535 489.857 551.001 479.212 555.034 477.116C559.068 475.02 564.491 476.933 562.451 484.219C559.914 493.282 553.535 489.857 553.535 489.857Z" fill="url(#paint32_linear_109_1438)"/>
<path d="M561.365 596.247C561.304 596.25 561.242 596.252 561.181 596.251L481.112 596.164C479.133 596.162 477.53 594.556 477.532 592.576C477.534 590.596 479.146 588.961 481.12 588.996L561.189 589.083C563.168 589.085 564.771 590.691 564.769 592.671C564.767 594.589 563.259 596.153 561.365 596.247Z" fill="url(#paint33_linear_109_1438)"/>
<path d="M409.134 523.55H475.816C480.735 523.55 485.212 526.389 487.31 530.838L518.137 596.204H435.27C432.1 596.204 429.252 594.267 428.086 591.319L404.181 530.832C402.801 527.337 405.376 523.55 409.134 523.55Z" fill="#444B8C"/>
<path d="M471.081 581.605L461.305 560.92C466.072 556.97 467.757 550.156 464.99 544.301C461.714 537.37 453.439 534.406 446.507 537.683C439.575 540.959 436.612 549.234 439.888 556.165C442.786 562.298 449.596 565.32 455.928 563.669L458.722 569.58L455.565 571.073C454.381 571.632 453.875 573.045 454.434 574.23L454.471 574.307C455.031 575.491 456.444 575.998 457.628 575.438L460.786 573.946L463.365 579.403L458.493 581.705C457.308 582.265 456.802 583.678 457.362 584.862L457.399 584.94C457.958 586.124 459.372 586.63 460.556 586.071L465.428 583.768L465.625 584.184C466.33 585.676 468.112 586.314 469.604 585.609L469.656 585.584C471.148 584.879 471.787 583.097 471.081 581.605ZM444.696 553.893C442.674 549.617 444.503 544.511 448.779 542.49C453.056 540.469 458.161 542.297 460.183 546.573C462.204 550.85 460.375 555.955 456.099 557.977C451.822 559.998 446.717 558.17 444.696 553.893Z" fill="#8C7AE6"/>
<path d="M419.945 767.979C419.501 767.979 419.051 767.893 418.617 767.712C416.91 767.001 416.121 765.085 416.856 763.433L487.422 604.619C488.155 602.967 490.133 602.204 491.842 602.914C493.549 603.625 494.338 605.541 493.603 607.193L423.037 766.008C422.49 767.24 421.249 767.979 419.945 767.979Z" fill="#7D97F4"/>
<path d="M499.44 767.978C498.137 767.978 496.896 767.24 496.348 766.007L425.783 607.193C425.048 605.54 425.837 603.624 427.544 602.913C429.25 602.203 431.229 602.965 431.964 604.618L502.53 763.432C503.264 765.085 502.476 767.001 500.769 767.712C500.335 767.893 499.884 767.978 499.44 767.978Z" fill="#7D97F4"/>
<path d="M638.376 767.979C637.932 767.979 637.481 767.893 637.048 767.712C635.341 767.001 634.552 765.085 635.286 763.433L705.852 604.619C706.587 602.967 708.563 602.204 710.272 602.914C711.979 603.625 712.768 605.541 712.034 607.193L641.468 766.008C640.921 767.24 639.68 767.979 638.376 767.979Z" fill="#7D97F4"/>
<path d="M717.871 767.978C716.568 767.978 715.327 767.24 714.779 766.007L644.213 607.193C643.479 605.54 644.267 603.624 645.974 602.913C647.68 602.203 649.66 602.965 650.395 604.618L720.961 763.432C721.695 765.085 720.906 767.001 719.199 767.712C718.766 767.893 718.315 767.978 717.871 767.978Z" fill="#7D97F4"/>
<path d="M726.148 599.715C726.328 598.674 726.083 597.597 725.48 596.778C724.877 595.96 723.979 595.486 723.031 595.486H402.008C400.762 595.486 399.602 596.197 398.93 597.372C398.259 598.548 398.169 600.025 398.691 601.292L402.17 609.721C402.967 611.652 404.693 612.888 406.592 612.888H720.828C722.595 612.888 724.113 611.485 724.449 609.543L726.148 599.715Z" fill="#7D97F4"/>
<defs>
<linearGradient id="paint0_linear_109_1438" x1="817.681" y1="870.621" x2="251.512" y2="259.518" gradientUnits="userSpaceOnUse">
<stop stop-color="#DAE3FE"/>
<stop offset="1" stop-color="#E9EFFD"/>
</linearGradient>
<linearGradient id="paint1_linear_109_1438" x1="206.47" y1="267.666" x2="-29.8599" y2="786.963" gradientUnits="userSpaceOnUse">
<stop stop-color="#FDF53F"/>
<stop offset="1" stop-color="#D93C65"/>
</linearGradient>
<linearGradient id="paint2_linear_109_1438" x1="147.369" y1="325.846" x2="140.222" y2="441.293" gradientUnits="userSpaceOnUse">
<stop stop-color="#09005D"/>
<stop offset="1" stop-color="#1A0F91"/>
</linearGradient>
<linearGradient id="paint3_linear_109_1438" x1="122.362" y1="324.298" x2="115.216" y2="439.744" gradientUnits="userSpaceOnUse">
<stop stop-color="#09005D"/>
<stop offset="1" stop-color="#1A0F91"/>
</linearGradient>
<linearGradient id="paint4_linear_109_1438" x1="176.166" y1="327.629" x2="169.019" y2="443.075" gradientUnits="userSpaceOnUse">
<stop stop-color="#09005D"/>
<stop offset="1" stop-color="#1A0F91"/>
</linearGradient>
<linearGradient id="paint5_linear_109_1438" x1="162.189" y1="387.195" x2="152.231" y2="398.813" gradientUnits="userSpaceOnUse">
<stop stop-color="#CB236D"/>
<stop offset="1" stop-color="#4C246D"/>
</linearGradient>
<linearGradient id="paint6_linear_109_1438" x1="128.834" y1="367.546" x2="147.634" y2="307.518" gradientUnits="userSpaceOnUse">
<stop stop-color="#FEBBBA"/>
<stop offset="1" stop-color="#FF928E"/>
</linearGradient>
<linearGradient id="paint7_linear_109_1438" x1="156.597" y1="376.24" x2="175.397" y2="316.213" gradientUnits="userSpaceOnUse">
<stop stop-color="#FEBBBA"/>
<stop offset="1" stop-color="#FF928E"/>
</linearGradient>
<linearGradient id="paint8_linear_109_1438" x1="341.191" y1="274.268" x2="262.73" y2="354.621" gradientUnits="userSpaceOnUse">
<stop stop-color="#FF928E"/>
<stop offset="1" stop-color="#FE7062"/>
</linearGradient>
<linearGradient id="paint9_linear_109_1438" x1="303.507" y1="237.471" x2="225.045" y2="317.823" gradientUnits="userSpaceOnUse">
<stop stop-color="#FF928E"/>
<stop offset="1" stop-color="#FE7062"/>
</linearGradient>
<linearGradient id="paint10_linear_109_1438" x1="143.995" y1="429.799" x2="152.662" y2="371.794" gradientUnits="userSpaceOnUse">
<stop stop-color="#FEBBBA"/>
<stop offset="1" stop-color="#FF928E"/>
</linearGradient>
<linearGradient id="paint11_linear_109_1438" x1="313.127" y1="246.865" x2="234.666" y2="327.217" gradientUnits="userSpaceOnUse">
<stop stop-color="#FF928E"/>
<stop offset="1" stop-color="#FE7062"/>
</linearGradient>
<linearGradient id="paint12_linear_109_1438" x1="327.293" y1="260.698" x2="248.831" y2="341.05" gradientUnits="userSpaceOnUse">
<stop stop-color="#FF928E"/>
<stop offset="1" stop-color="#FE7062"/>
</linearGradient>
<linearGradient id="paint13_linear_109_1438" x1="141.556" y1="371.53" x2="160.356" y2="311.502" gradientUnits="userSpaceOnUse">
<stop stop-color="#FEBBBA"/>
<stop offset="1" stop-color="#FF928E"/>
</linearGradient>
<linearGradient id="paint14_linear_109_1438" x1="122.348" y1="322.944" x2="198.442" y2="444.234" gradientUnits="userSpaceOnUse">
<stop stop-color="#09005D"/>
<stop offset="1" stop-color="#1A0F91"/>
</linearGradient>
<linearGradient id="paint15_linear_109_1438" x1="525.327" y1="715.064" x2="540.535" y2="744.973" gradientUnits="userSpaceOnUse">
<stop stop-color="#09005D"/>
<stop offset="1" stop-color="#1A0F91"/>
</linearGradient>
<linearGradient id="paint16_linear_109_1438" x1="554.246" y1="726.967" x2="539.096" y2="726.967" gradientUnits="userSpaceOnUse">
<stop stop-color="#FEBBBA"/>
<stop offset="1" stop-color="#FF928E"/>
</linearGradient>
<linearGradient id="paint17_linear_109_1438" x1="575.211" y1="686.881" x2="510.831" y2="596.648" gradientUnits="userSpaceOnUse">
<stop stop-color="#09005D"/>
<stop offset="1" stop-color="#1A0F91"/>
</linearGradient>
<linearGradient id="paint18_linear_109_1438" x1="534.153" y1="745.304" x2="586.874" y2="814.246" gradientUnits="userSpaceOnUse">
<stop stop-color="#09005D"/>
<stop offset="1" stop-color="#1A0F91"/>
</linearGradient>
<linearGradient id="paint19_linear_109_1438" x1="560.537" y1="760.236" x2="519.8" y2="760.236" gradientUnits="userSpaceOnUse">
<stop stop-color="#53D8FF"/>
<stop offset="1" stop-color="#3840F7"/>
</linearGradient>
<linearGradient id="paint20_linear_109_1438" x1="565.201" y1="740.948" x2="550.982" y2="740.948" gradientUnits="userSpaceOnUse">
<stop stop-color="#FEBBBA"/>
<stop offset="1" stop-color="#FF928E"/>
</linearGradient>
<linearGradient id="paint21_linear_109_1438" x1="598.415" y1="731.845" x2="594.867" y2="611.197" gradientUnits="userSpaceOnUse">
<stop stop-color="#09005D"/>
<stop offset="1" stop-color="#1A0F91"/>
</linearGradient>
<linearGradient id="paint22_linear_109_1438" x1="57.4567" y1="90.4853" x2="-87.7019" y2="-55.7176" gradientUnits="userSpaceOnUse">
<stop stop-color="#09005D"/>
<stop offset="1" stop-color="#1A0F91"/>
</linearGradient>
<linearGradient id="paint23_linear_109_1438" x1="521.755" y1="576.986" x2="472.157" y2="576.986" gradientUnits="userSpaceOnUse">
<stop stop-color="#FEBBBA"/>
<stop offset="1" stop-color="#FF928E"/>
</linearGradient>
<linearGradient id="paint24_linear_109_1438" x1="544.631" y1="517.587" x2="656.156" y2="598.696" gradientUnits="userSpaceOnUse">
<stop stop-color="#09005D"/>
<stop offset="1" stop-color="#1A0F91"/>
</linearGradient>
<linearGradient id="paint25_linear_109_1438" x1="560.624" y1="495.597" x2="672.149" y2="576.705" gradientUnits="userSpaceOnUse">
<stop stop-color="#09005D"/>
<stop offset="1" stop-color="#1A0F91"/>
</linearGradient>
<linearGradient id="paint26_linear_109_1438" x1="795.951" y1="197.107" x2="663.774" y2="451.196" gradientUnits="userSpaceOnUse">
<stop stop-color="#09005D"/>
<stop offset="1" stop-color="#1A0F91"/>
</linearGradient>
<linearGradient id="paint27_linear_109_1438" x1="591.52" y1="577.583" x2="717.51" y2="796.517" gradientUnits="userSpaceOnUse">
<stop stop-color="#FEBBBA"/>
<stop offset="1" stop-color="#FF928E"/>
</linearGradient>
<linearGradient id="paint28_linear_109_1438" x1="888.411" y1="-114.642" x2="649.771" y2="344.105" gradientUnits="userSpaceOnUse">
<stop stop-color="#09005D"/>
<stop offset="1" stop-color="#1A0F91"/>
</linearGradient>
<linearGradient id="paint29_linear_109_1438" x1="568.139" y1="501.903" x2="536.172" y2="501.903" gradientUnits="userSpaceOnUse">
<stop stop-color="#FEBBBA"/>
<stop offset="1" stop-color="#FF928E"/>
</linearGradient>
<linearGradient id="paint30_linear_109_1438" x1="532.798" y1="466.654" x2="559.033" y2="529.633" gradientUnits="userSpaceOnUse">
<stop stop-color="#FEBBBA"/>
<stop offset="1" stop-color="#FF928E"/>
</linearGradient>
<linearGradient id="paint31_linear_109_1438" x1="559.94" y1="487.218" x2="512.357" y2="474.938" gradientUnits="userSpaceOnUse">
<stop stop-color="#09005D"/>
<stop offset="1" stop-color="#1A0F91"/>
</linearGradient>
<linearGradient id="paint32_linear_109_1438" x1="580.369" y1="523.444" x2="556.879" y2="482.418" gradientUnits="userSpaceOnUse">
<stop stop-color="#FEBBBA"/>
<stop offset="1" stop-color="#FF928E"/>
</linearGradient>
<linearGradient id="paint33_linear_109_1438" x1="574.949" y1="574.973" x2="511.389" y2="595.819" gradientUnits="userSpaceOnUse">
<stop stop-color="#09005D"/>
<stop offset="1" stop-color="#1A0F91"/>
</linearGradient>
</defs>
</svg>
