<?xml version="1.0" encoding="UTF-8"?>
<svg version="1.1" xmlns="http://www.w3.org/2000/svg" width="397" height="110">
<path d="M0 0 C2.30393238 1.43164559 4.38556499 2.96770587 6.48828125 4.6796875 C7.46667969 5.45505859 7.46667969 5.45505859 8.46484375 6.24609375 C17.37142787 14.1768569 22.41432986 25.90842942 28.07421875 36.19140625 C29.35739298 38.52121203 30.64100908 40.85076359 31.92578125 43.1796875 C32.40686844 44.05220657 32.40686844 44.05220657 32.89767456 44.94235229 C36.94623615 52.27147121 41.07989276 59.51345028 45.61328125 66.5546875 C46.03794678 67.21919922 46.4626123 67.88371094 46.90014648 68.56835938 C51.86166366 76.10042064 58.08534307 82.50657188 67.2265625 84.421875 C75.74106739 85.39244032 83.54576799 83.75221943 90.48828125 78.6796875 C97.20066675 71.07787152 102.15157889 62.39515284 106.92578125 53.4921875 C108.22249671 51.1110536 109.52578905 48.73353199 110.828125 46.35546875 C111.45187012 45.21287598 112.07561523 44.0702832 112.71826172 42.89306641 C116.16029461 36.64423372 119.76895724 30.49672617 123.45654297 24.39013672 C124.42490397 22.78475642 125.38086683 21.17191608 126.3359375 19.55859375 C133.78855843 7.31864001 141.66896767 -0.71387464 155.48828125 -5.3203125 C157.21495133 -5.42080465 158.94521298 -5.46390123 160.67477417 -5.47421265 C161.74868408 -5.48281311 162.82259399 -5.49141357 163.92904663 -5.50027466 C165.10730011 -5.50453461 166.28555359 -5.50879456 167.49951172 -5.51318359 C168.74037537 -5.52136108 169.98123901 -5.52953857 171.25970459 -5.53796387 C175.37495603 -5.56282205 179.49017078 -5.57948524 183.60546875 -5.59375 C185.02281831 -5.59911065 186.44016781 -5.60448816 187.85751724 -5.60988235 C193.75266832 -5.63150349 199.64781669 -5.65024085 205.54299736 -5.66150475 C213.98944484 -5.67775046 222.43543282 -5.71095135 230.88170707 -5.76790559 C236.82234864 -5.80659831 242.76286725 -5.82613644 248.70363152 -5.83142531 C252.25137953 -5.83507902 255.79863706 -5.84710143 259.34624863 -5.87952805 C263.30372383 -5.91518416 267.26062127 -5.91123946 271.21826172 -5.90380859 C272.39246674 -5.92021393 273.56667175 -5.93661926 274.77645874 -5.95352173 C283.6161554 -5.88540735 283.6161554 -5.88540735 286.71365356 -2.91275024 C288.41589208 -0.42606111 289.17302687 0.71630467 289.11328125 3.6796875 C289.12617188 4.3190625 289.1390625 4.9584375 289.15234375 5.6171875 C288.02697384 9.11245403 286.4171141 10.45187679 283.48828125 12.6796875 C279.70600658 13.42972264 275.96910493 13.34918698 272.1237793 13.30737305 C270.40094727 13.31827972 270.40094727 13.31827972 268.64331055 13.32940674 C264.84522784 13.34801354 261.04808337 13.33192213 257.25 13.31640625 C254.60829323 13.32444529 251.96659294 13.33496275 249.3249054 13.34785461 C243.07653572 13.37498906 236.82840907 13.37849952 230.57999212 13.37208158 C218.74067822 13.36049843 206.90149885 13.39159765 195.0622654 13.43244362 C191.17805246 13.44128548 187.29404828 13.43599413 183.40983582 13.42887878 C181.02021224 13.43226446 178.63058913 13.43601408 176.2409668 13.44018555 C174.62678612 13.43164299 174.62678612 13.43164299 172.97999573 13.42292786 C164.60962354 13.45572193 157.12196709 14.02876993 150.48828125 19.6796875 C148.37642567 22.47630757 146.65357246 25.44708461 144.92578125 28.4921875 C144.41474854 29.3680249 143.90371582 30.2438623 143.37719727 31.14624023 C141.73048675 33.98128307 140.10664415 36.82837751 138.48828125 39.6796875 C137.946875 40.63037109 137.40546875 41.58105469 136.84765625 42.56054688 C132.52952423 50.15326234 128.23991624 57.76224949 123.97460938 65.38476562 C113.31182766 84.40218374 113.31182766 84.40218374 106.48828125 91.6796875 C105.87855469 92.33066406 105.26882812 92.98164062 104.640625 93.65234375 C94.30565597 103.64776554 81.36212681 105.24684049 67.6953125 105.01953125 C54.72631223 104.4511499 44.71953662 98.46737929 36.09765625 89.06640625 C32.2879265 84.65142555 29.4753196 79.9014899 26.67578125 74.8046875 C26.16007568 73.88558594 25.64437012 72.96648437 25.11303711 72.01953125 C22.69964918 67.70924642 20.32196227 63.37962904 17.94921875 59.046875 C13.39578723 50.74160756 8.7068774 42.53265921 3.80078125 34.4296875 C3.27814697 33.54796875 2.7555127 32.66625 2.21704102 31.7578125 C-3.19591603 22.93505843 -9.37073343 17.38597743 -19.51171875 14.6796875 C-27.50349712 13.46165596 -34.84338525 15.32462236 -41.4140625 20.046875 C-47.10308631 25.23278786 -50.70271395 32.08419161 -54.51171875 38.6796875 C-55.03266113 39.57655273 -55.55360352 40.47341797 -56.09033203 41.39746094 C-61.27276583 50.32365345 -66.41291076 59.27411241 -71.54638672 68.22851562 C-72.88699703 70.56689264 -74.22888111 72.9045304 -75.57202148 75.24145508 C-76.82512019 77.42227267 -78.07608631 79.60431766 -79.32446289 81.7878418 C-90.51924983 101.26430312 -90.51924983 101.26430312 -94.51171875 104.6796875 C-99.11331667 105.71375445 -102.60415956 105.2538576 -106.57421875 102.7421875 C-109.1624403 98.65112763 -109.34916416 95.33574633 -108.51171875 90.6796875 C-106.69144896 86.41867791 -104.31655245 82.55537763 -101.88671875 78.6171875 C-101.20001763 77.47220668 -100.51531713 76.32602386 -99.83251953 75.17871094 C-98.42729791 72.82240245 -97.01250894 70.47228022 -95.58984375 68.12646484 C-93.04214711 63.91590121 -90.57462054 59.659802 -88.10839844 55.40112305 C-86.39226832 52.43926547 -84.66456973 49.48445194 -82.93359375 46.53125 C-80.61646101 42.57623543 -78.31674659 38.61174968 -76.02734375 34.640625 C-57.11754501 1.98413091 -57.11754501 1.98413091 -38.33984375 -4.3984375 C-25.65522179 -7.45310156 -11.53976021 -6.06600148 0 0 Z " fill="#8B79E4" transform="translate(108.51171875,5.3203125)"/>
<path d="M0 0 C0.85258896 -0.00335861 1.70517792 -0.00671722 2.58360291 -0.01017761 C5.40324359 -0.01967802 8.22282477 -0.02163061 11.04248047 -0.02270508 C13.00820948 -0.02591951 14.97393824 -0.02928373 16.93966675 -0.03279114 C21.06378737 -0.038781 25.18788705 -0.04063131 29.31201172 -0.04003906 C34.57743898 -0.03993773 39.84273051 -0.05356083 45.10812569 -0.07081127 C49.17124031 -0.08197476 53.23432264 -0.0839569 57.29745102 -0.08342934 C59.23736919 -0.08460402 61.17728833 -0.08899686 63.11719131 -0.0967617 C90.4774396 -0.19597826 90.4774396 -0.19597826 101.51123047 9.96557617 C108.88286139 17.7136308 111.15233821 25.75119551 111.00537109 36.31323242 C110.74931144 42.04461015 109.72701436 46.39009696 106.53466797 51.14526367 C106.07189453 51.84006836 105.60912109 52.53487305 105.13232422 53.25073242 C100.16899126 59.71884115 93.32141621 64.30016528 85.1833992 65.48864365 C78.35448667 66.05666455 71.51016682 65.96091586 64.66357422 65.90698242 C62.4506764 65.90848684 60.23777914 65.91192177 58.02488708 65.91719055 C53.40946659 65.92150368 48.79474933 65.90481226 44.17944336 65.87255859 C38.26544864 65.83261643 32.35275931 65.84215382 26.43872166 65.86679363 C21.87903626 65.88096843 17.31965633 65.87089919 12.7599926 65.85328102 C10.57871161 65.84743672 8.39739933 65.84872542 6.2161274 65.85730553 C3.17389288 65.86529458 0.13358254 65.84106852 -2.90844727 65.80810547 C-3.8066922 65.81665558 -4.70493713 65.82520569 -5.63040161 65.83401489 C-10.10081191 65.75038822 -11.90133121 65.59053607 -15.52113342 62.73274231 C-17.94835827 59.50241778 -18.20095477 57.97399583 -17.96533203 54.07885742 C-17.11696456 50.79806135 -15.05350263 49.17882629 -12.46533203 47.14526367 C-9.1240169 45.47460611 -5.36355154 45.99198253 -1.6887207 45.98754883 C-0.32507637 45.97992775 -0.32507637 45.97992775 1.06611633 45.97215271 C3.04464053 45.96143563 5.02317694 45.95282072 7.00171852 45.94603348 C10.13277696 45.93426575 13.26369613 45.9148181 16.3946991 45.89291382 C25.29848603 45.83122807 34.20225951 45.77724699 43.10620117 45.74389648 C48.54861632 45.7229601 53.99077911 45.68766319 59.43305016 45.64313889 C61.50824705 45.62896844 63.58348861 45.6202541 65.65873146 45.6170845 C68.56271413 45.61218008 71.46602641 45.58903337 74.36987305 45.56176758 C75.227724 45.56477371 76.08557495 45.56777985 76.96942139 45.57087708 C81.65306051 45.50551707 84.71140926 45.15068989 88.53466797 42.14526367 C90.84939933 39.16918049 90.94911454 35.95614168 90.85888672 32.24291992 C90.28898056 28.55569575 88.66813725 26.19307692 86.53466797 23.14526367 C78.58041708 17.84242974 65.03809663 20.04734051 55.66419029 20.1312294 C53.05272075 20.15355637 50.4413268 20.16743441 47.82978821 20.17892456 C40.41417263 20.21224866 32.99868429 20.25432368 25.58325195 20.31665039 C21.02420685 20.35437322 16.46528492 20.37733755 11.90610695 20.39095688 C10.1785924 20.39897929 8.45109391 20.41254278 6.72366905 20.43188858 C4.30984682 20.45848255 1.89661699 20.46627006 -0.51733398 20.4699707 C-1.2213736 20.48232758 -1.92541321 20.49468445 -2.65078735 20.50741577 C-7.70575437 20.48706539 -11.07288821 19.4862235 -15.46533203 17.14526367 C-17.916546 13.46844272 -18.28951965 10.41605405 -17.46533203 6.14526367 C-12.51741944 -0.3145111 -7.63157039 -0.0043117 0 0 Z " fill="#8B78E5" transform="translate(286.46533203125,44.854736328125)"/>
</svg>
